# xmcd CD database file
#
# Track frame offsets:
#	150
#	18260
#	38090
#	57135
#
# Disc length: 964 seconds
#
# Revision: 0
# Processed by: cddbd v1.5.1PL0 Copyright (c) Steve Scherf et al.
# Submitted via: CDex 1.51
#
DISCID=2503c204
DTITLE=Remy Zero - Save me [CD-Single)
DYEAR=2001
DGENRE=Jazz
TTITLE0=Save me (Radio edit)
TTITLE1=Save me (Album version)
TTITLE2=Resurrection
TTITLE3=The searchers
EXTD=YEAR: 2001
EXTT0=
EXTT1=
EXTT2=
EXTT3=
PLAYORDER=
